<mxfile host="app.diagrams.net" modified="2023-03-18T00:10:23.740Z" agent="5.0 (Windows NT 10.0; Win64; x64) AppleWebKit/537.36 (KHTML, like Gecko) Chrome/111.0.0.0 Safari/537.36" etag="CnAwVmhtIOUGOJS0G88-" version="21.0.6" type="github">
  <diagram name="Página-1" id="93haLuahg1Ov3Uhfy_TV">
    <mxGraphModel dx="1050" dy="483" grid="1" gridSize="10" guides="1" tooltips="1" connect="1" arrows="1" fold="1" page="1" pageScale="1" pageWidth="827" pageHeight="1169" math="0" shadow="0">
      <root>
        <mxCell id="0" />
        <mxCell id="1" parent="0" />
        <mxCell id="Y0-RWTtbSj_2u-Xx135a-1" value="INICIO" style="ellipse;whiteSpace=wrap;html=1;" vertex="1" parent="1">
          <mxGeometry x="369" y="40" width="90" height="40" as="geometry" />
        </mxCell>
        <mxCell id="Y0-RWTtbSj_2u-Xx135a-2" value="Ingresa Ruta" style="shape=parallelogram;perimeter=parallelogramPerimeter;whiteSpace=wrap;html=1;fixedSize=1;" vertex="1" parent="1">
          <mxGeometry x="354" y="120" width="120" height="40" as="geometry" />
        </mxCell>
        <mxCell id="Y0-RWTtbSj_2u-Xx135a-3" value="" style="endArrow=classic;html=1;rounded=0;exitX=0.5;exitY=1;exitDx=0;exitDy=0;entryX=0.5;entryY=0;entryDx=0;entryDy=0;" edge="1" parent="1" source="Y0-RWTtbSj_2u-Xx135a-1" target="Y0-RWTtbSj_2u-Xx135a-2">
          <mxGeometry width="50" height="50" relative="1" as="geometry">
            <mxPoint x="390" y="220" as="sourcePoint" />
            <mxPoint x="440" y="170" as="targetPoint" />
          </mxGeometry>
        </mxCell>
        <mxCell id="Y0-RWTtbSj_2u-Xx135a-4" value="La Ruta es Absoluta?" style="rhombus;whiteSpace=wrap;html=1;" vertex="1" parent="1">
          <mxGeometry x="364" y="199" width="100" height="80" as="geometry" />
        </mxCell>
        <mxCell id="Y0-RWTtbSj_2u-Xx135a-5" value="" style="endArrow=classic;html=1;rounded=0;exitX=0.5;exitY=1;exitDx=0;exitDy=0;entryX=0.5;entryY=0;entryDx=0;entryDy=0;" edge="1" parent="1">
          <mxGeometry width="50" height="50" relative="1" as="geometry">
            <mxPoint x="414" y="160" as="sourcePoint" />
            <mxPoint x="414" y="200" as="targetPoint" />
          </mxGeometry>
        </mxCell>
        <mxCell id="Y0-RWTtbSj_2u-Xx135a-6" value="" style="endArrow=classic;html=1;rounded=0;exitX=0.5;exitY=1;exitDx=0;exitDy=0;" edge="1" parent="1">
          <mxGeometry width="50" height="50" relative="1" as="geometry">
            <mxPoint x="464" y="238.5" as="sourcePoint" />
            <mxPoint x="510" y="239" as="targetPoint" />
          </mxGeometry>
        </mxCell>
        <mxCell id="Y0-RWTtbSj_2u-Xx135a-7" value="" style="endArrow=classic;html=1;rounded=0;exitX=0.5;exitY=1;exitDx=0;exitDy=0;" edge="1" parent="1" target="Y0-RWTtbSj_2u-Xx135a-10">
          <mxGeometry width="50" height="50" relative="1" as="geometry">
            <mxPoint x="364" y="238.5" as="sourcePoint" />
            <mxPoint x="324" y="239.5" as="targetPoint" />
          </mxGeometry>
        </mxCell>
        <mxCell id="Y0-RWTtbSj_2u-Xx135a-8" value="NO" style="text;strokeColor=none;align=center;fillColor=none;html=1;verticalAlign=middle;whiteSpace=wrap;rounded=0;" vertex="1" parent="1">
          <mxGeometry x="335" y="210" width="29" height="30" as="geometry" />
        </mxCell>
        <mxCell id="Y0-RWTtbSj_2u-Xx135a-9" value="SÍ" style="text;strokeColor=none;align=center;fillColor=none;html=1;verticalAlign=middle;whiteSpace=wrap;rounded=0;" vertex="1" parent="1">
          <mxGeometry x="464" y="210" width="30" height="30" as="geometry" />
        </mxCell>
        <mxCell id="Y0-RWTtbSj_2u-Xx135a-10" value="Convertir a Ruta Absoluta" style="rounded=1;whiteSpace=wrap;html=1;" vertex="1" parent="1">
          <mxGeometry x="220" y="219" width="100" height="40" as="geometry" />
        </mxCell>
        <mxCell id="Y0-RWTtbSj_2u-Xx135a-11" value="Convertir a Ruta Absoluta" style="rounded=1;whiteSpace=wrap;html=1;" vertex="1" parent="1">
          <mxGeometry x="550" y="120" width="100" height="40" as="geometry" />
        </mxCell>
        <mxCell id="Y0-RWTtbSj_2u-Xx135a-12" value="¿Es un &lt;br&gt;Archivo?" style="rhombus;whiteSpace=wrap;html=1;" vertex="1" parent="1">
          <mxGeometry x="510" y="199" width="100" height="80" as="geometry" />
        </mxCell>
      </root>
    </mxGraphModel>
  </diagram>
</mxfile>
